<?xml version="1.0" encoding="UTF-8"?>
<svg id="Layer_2" data-name="Layer 2" xmlns="http://www.w3.org/2000/svg" viewBox="0 0 84 140.1">
  <defs>
    <style>
      .cls-1 {
        fill: #d8b11c;
      }
    </style>
  </defs>
  <g id="Layer_1-2" data-name="Layer 1">
    <g>
      <path class="cls-1" d="M57.6,39.6l1-1.76c.65-1.36,1.08-2.93,1.76-4.25.12-.23.05-.64.48-.47.81.33,3.97,6.34,4.32,7.44,1.58,5.09-2.12.68-3.23.33-1.48-.47-3.23,2.83-4.32,3.64-2.12,1.57-2.75,1.4-3.97,4.19-2.35,5.38-2.49,11.83-3.66,17.46s-2.07,11.32-2.71,17.21c-1.53,14.22-2.12,28.56-2.88,42.84-.42.06-.23-.54-.24-.84-.13-3.11-.06-6.49-.01-9.61.24-16.5-.9-33.75,2.73-49.83.97-4.3,2.82-8.88,3.46-13.1,1.48-9.83-1.79-19.73-8.21-27.17-3.63,4.74-6.53,10.56-7.49,16.51-1.58,9.74,1.74,15.86,3.7,24.96,3.39,15.84,2.23,33.1,2.49,49.35.04,2.89.11,6.02-.01,8.89-.01.29.18.89-.24.84l-1.21-22.68c-1-12.54-1.84-25.06-4.38-37.38-1.16-5.62-1.42-12.96-3.97-18.11-1.16-2.34-1.74-2.14-3.53-3.43-1.1-.79-2.51-3.37-3.71-3.75-1.39-.44-2.77,2.44-4.32,2.07-.63-1.61,3.76-9.46,4.68-9.84.42-.17.36.24.48.47.68,1.32,1.11,2.9,1.76,4.25l1,1.76c.37-3.05,1.11-6.08,2.22-8.94s2.79-5.41,4.07-8.17c3.31-7.19,5.86-14.83,7.88-22.48l2.63,7.8c.81,1.92,1.52,3.89,2.36,5.8,3.86,8.71,10.18,16.22,11.08,26Z"/>
      <path class="cls-1" d="M77.76,78.24c.1.54-.03.38-.3.53-1.16.63-3.14,1.06-4.5,1.74-8.25,4.07-13.49,12.4-14.84,21.4-1.66,11.07-2.8,28.18-11.92,36.08-3.27,2.83-4.88,2.79-8.16.01-6.06-5.13-9.25-16.87-10.6-24.44-1.05-5.88-.98-12.29-3.02-17.86-3.03-8.29-9.65-14.7-18.18-17.1,13.7-8.52,20.46,3.56,22.92,15.48,2.11,10.24,1.97,30.6,8.42,38.62.8.99,3.49,3.22,4.76,3.14.6-.04,3.02-1.77,3.49-2.28,5.68-6.02,7.05-25.77,8.2-34.04,1.79-12.91,7.05-30.17,23.73-21.27Z"/>
      <path class="cls-1" d="M84,53.76c-3.97-.54-8.03-.37-11.68,1.4-3.18,1.54-7.77,5.62-7.26,9.5.26,1.92,1.88,2.85,2.49,4.46-1.63,2.4-4.17,3.92-6.85,4.91-1.01.37-2.22.29-3.1.98-2.9,2.3-5.21,13.99-5.93,17.83-2.01,10.62-3.04,21.45-4.03,32.2-.4-.27-.34-.66-.37-1.07-.61-8.61,1.32-19.66,2.73-28.26,1.49-9.09,3.26-19.19,5.51-28.09,2.75-10.85,8.68-22.03,21.9-17.72,2.22.72,5,2.17,6.59,3.85Z"/>
      <path class="cls-1" d="M36.72,125.04c-.32-.13-.41-1.25-.45-1.59-1.4-12.63-2.23-25.47-5.38-37.82-.65-2.54-2.54-9.5-4.74-10.86-.77-.47-1.35-.29-2.1-.54-2.19-.74-4.65-1.88-6.3-3.54-2.38-2.4-.17-2.48.85-4.69,1.92-4.17-2.6-8.48-5.96-10.36-3.92-2.19-8.27-2.5-12.64-1.88,8.36-6.66,18-6.97,24.1,2.66,5.58,8.81,8.72,31.03,10.42,41.9,1.37,8.77,2.72,17.84,2.2,26.72Z"/>
    </g>
  </g>
</svg>